<svg width="24" height="16" viewBox="0 0 24 16" fill="none" xmlns="http://www.w3.org/2000/svg">
<path d="M1 8L0.309524 7.27664C0.111843 7.46534 0 7.72672 0 8C0 8.27328 0.111843 8.53466 0.309524 8.72336L1 8ZM9.02381 1.72336C9.42331 1.34202 9.43803 0.709022 9.05669 0.309524C8.67535 -0.089974 8.04236 -0.104695 7.64286 0.276644L9.02381 1.72336ZM7.64286 15.7234C8.04236 16.1047 8.67535 16.09 9.05669 15.6905C9.43803 15.291 9.42331 14.658 9.02381 14.2766L7.64286 15.7234ZM23 9C23.5523 9 24 8.55228 24 8C24 7.44772 23.5523 7 23 7V9ZM1.69048 8.72336L9.02381 1.72336L7.64286 0.276644L0.309524 7.27664L1.69048 8.72336ZM0.309524 8.72336L7.64286 15.7234L9.02381 14.2766L1.69048 7.27664L0.309524 8.72336ZM1 9H23V7H1V9Z" fill="#1B1B1B"/>
</svg>
