<svg width="24" height="16" viewBox="0 0 24 16" fill="none" xmlns="http://www.w3.org/2000/svg">
<path d="M23 8L23.6905 7.27664C23.8882 7.46534 24 7.72672 24 8C24 8.27328 23.8882 8.53466 23.6905 8.72336L23 8ZM14.9762 1.72336C14.5767 1.34202 14.562 0.709022 14.9433 0.309524C15.3247 -0.0899739 15.9576 -0.104695 16.3571 0.276644L14.9762 1.72336ZM16.3571 15.7234C15.9576 16.1047 15.3247 16.09 14.9433 15.6905C14.562 15.291 14.5767 14.658 14.9762 14.2766L16.3571 15.7234ZM1 9C0.447716 9 0 8.55228 0 8C0 7.44771 0.447716 7 1 7V9ZM22.3095 8.72336L14.9762 1.72336L16.3571 0.276644L23.6905 7.27664L22.3095 8.72336ZM23.6905 8.72336L16.3571 15.7234L14.9762 14.2766L22.3095 7.27664L23.6905 8.72336ZM23 9H1V7H23V9Z" fill="#1B1B1B"/>
</svg>
