<svg width="218" height="79" viewBox="0 0 218 79" fill="none" xmlns="http://www.w3.org/2000/svg">
<path d="M100.678 45.3223H103.363C103.292 46.2728 103.028 47.1159 102.572 47.8516C102.117 48.5807 101.482 49.1536 100.668 49.5703C99.8542 49.987 98.8678 50.1953 97.709 50.1953C96.8171 50.1953 96.013 50.0391 95.2969 49.7266C94.5872 49.4076 93.9785 48.9551 93.4707 48.3691C92.9694 47.7767 92.5853 47.0671 92.3184 46.2402C92.0514 45.4069 91.918 44.4727 91.918 43.4375V42.3535C91.918 41.3184 92.0547 40.3841 92.3281 39.5508C92.6016 38.7174 92.9922 38.0078 93.5 37.4219C94.0143 36.8294 94.6296 36.3737 95.3457 36.0547C96.0684 35.7357 96.8757 35.5762 97.7676 35.5762C98.9264 35.5762 99.9062 35.791 100.707 36.2207C101.508 36.6439 102.13 37.2266 102.572 37.9688C103.015 38.7109 103.282 39.5638 103.373 40.5273H100.688C100.635 39.9284 100.505 39.4206 100.297 39.0039C100.095 38.5872 99.7891 38.2715 99.3789 38.0566C98.9753 37.8353 98.4382 37.7246 97.7676 37.7246C97.2467 37.7246 96.7878 37.8223 96.3906 38.0176C96 38.2129 95.6745 38.5059 95.4141 38.8965C95.1536 39.2806 94.9583 39.7624 94.8281 40.3418C94.6979 40.9147 94.6328 41.5788 94.6328 42.334V43.4375C94.6328 44.1602 94.6914 44.8079 94.8086 45.3809C94.9258 45.9538 95.1081 46.4388 95.3555 46.8359C95.6029 47.2331 95.9219 47.5358 96.3125 47.7441C96.7031 47.9525 97.1686 48.0566 97.709 48.0566C98.3665 48.0566 98.9004 47.9525 99.3105 47.7441C99.7272 47.5358 100.043 47.2298 100.258 46.8262C100.479 46.4225 100.619 45.9212 100.678 45.3223ZM110.375 39.4336V50H107.787V39.4336H110.375ZM113.812 39.4336V41.4453H104.408V39.4336H113.812ZM117.572 44.7852H120.219L117.25 50H114.604L117.572 44.7852ZM119.369 39.4336H123.959V50H121.381V41.4453H119.369C118.959 41.4453 118.617 41.5202 118.344 41.6699C118.077 41.8197 117.878 42.0117 117.748 42.2461C117.618 42.474 117.553 42.7083 117.553 42.9492C117.553 43.1836 117.615 43.4115 117.738 43.6328C117.862 43.8542 118.051 44.0365 118.305 44.1797C118.565 44.3229 118.891 44.3945 119.281 44.3945H122.299V46.2109H119.281C118.611 46.2109 118.008 46.1296 117.475 45.9668C116.947 45.7975 116.495 45.5632 116.117 45.2637C115.746 44.9642 115.463 44.6126 115.268 44.209C115.072 43.7988 114.975 43.3529 114.975 42.8711C114.975 42.3763 115.072 41.9206 115.268 41.5039C115.469 41.0872 115.759 40.7227 116.137 40.4102C116.521 40.0977 116.983 39.8568 117.523 39.6875C118.07 39.5182 118.686 39.4336 119.369 39.4336ZM130.082 45.8789L125.785 39.4336H128.969L131.322 43.5059H133.363L133.041 45.8789H130.082ZM131.371 45.4688L128.812 50H125.678L129.34 44.1211L131.371 45.4688ZM134.984 39.4336V50H132.406V39.4336H134.984ZM141.635 39.4336L137.328 45.8789H134.369L134.047 43.5059H136.088L138.441 39.4336H141.635ZM138.598 50L136.039 45.4688L138.139 44.1211L141.791 50H138.598ZM145.971 39.4336V50H143.393V39.4336H145.971ZM152.855 39.4336L148.197 45.918H145.453L145.131 43.5547H147.035L149.604 39.4336H152.855ZM149.76 50L146.869 45.4688L149.018 44.1211L153.188 50H149.76ZM160.189 47.7539V42.8809C160.189 42.5228 160.128 42.2135 160.004 41.9531C159.88 41.6927 159.691 41.4909 159.438 41.3477C159.184 41.2044 158.861 41.1328 158.471 41.1328C158.126 41.1328 157.823 41.1914 157.562 41.3086C157.309 41.4258 157.113 41.5918 156.977 41.8066C156.84 42.015 156.771 42.2559 156.771 42.5293H154.184C154.184 42.0931 154.288 41.6797 154.496 41.2891C154.704 40.8919 155.001 40.5404 155.385 40.2344C155.775 39.9219 156.241 39.6777 156.781 39.502C157.328 39.3262 157.94 39.2383 158.617 39.2383C159.418 39.2383 160.131 39.375 160.756 39.6484C161.387 39.9154 161.882 40.319 162.24 40.8594C162.605 41.3997 162.787 42.0801 162.787 42.9004V47.5098C162.787 48.0371 162.82 48.4896 162.885 48.8672C162.956 49.2383 163.061 49.5605 163.197 49.834V50H160.57C160.447 49.7331 160.352 49.3945 160.287 48.9844C160.222 48.5677 160.189 48.1576 160.189 47.7539ZM160.551 43.5645L160.57 45.0977H158.939C158.536 45.0977 158.181 45.14 157.875 45.2246C157.569 45.3027 157.318 45.4199 157.123 45.5762C156.928 45.7259 156.781 45.9082 156.684 46.123C156.586 46.3314 156.537 46.569 156.537 46.8359C156.537 47.0964 156.596 47.3307 156.713 47.5391C156.837 47.7474 157.012 47.9134 157.24 48.0371C157.475 48.1543 157.748 48.2129 158.061 48.2129C158.516 48.2129 158.913 48.1217 159.252 47.9395C159.59 47.7507 159.854 47.5228 160.043 47.2559C160.232 46.9889 160.333 46.735 160.346 46.4941L161.088 47.6074C160.997 47.8743 160.86 48.1576 160.678 48.457C160.495 48.7565 160.261 49.0365 159.975 49.2969C159.688 49.5573 159.343 49.7721 158.939 49.9414C158.536 50.1107 158.067 50.1953 157.533 50.1953C156.85 50.1953 156.238 50.0586 155.697 49.7852C155.157 49.5117 154.73 49.1374 154.418 48.6621C154.105 48.1868 153.949 47.6465 153.949 47.041C153.949 46.4811 154.053 45.9863 154.262 45.5566C154.47 45.127 154.779 44.7656 155.189 44.4727C155.6 44.1732 156.107 43.9486 156.713 43.7988C157.325 43.6426 158.025 43.5645 158.812 43.5645H160.551ZM170.248 42.8906V44.9316H164.906V42.8906H170.248ZM178.793 46.9531L181.762 39.4336H183.92L179.672 50H177.924L173.686 39.4336H175.854L178.793 46.9531ZM175.219 39.4336V50H172.631V39.4336H175.219ZM182.416 50V39.4336H185.004V50H182.416ZM187.68 48.7402C187.68 48.3496 187.813 48.0208 188.08 47.7539C188.347 47.487 188.708 47.3535 189.164 47.3535C189.62 47.3535 189.981 47.487 190.248 47.7539C190.515 48.0208 190.648 48.3496 190.648 48.7402C190.648 49.1243 190.515 49.4499 190.248 49.7168C189.981 49.9772 189.62 50.1074 189.164 50.1074C188.708 50.1074 188.347 49.9772 188.08 49.7168C187.813 49.4499 187.68 49.1243 187.68 48.7402ZM195.834 41.4648V54.0625H193.246V39.4336H195.639L195.834 41.4648ZM202.621 44.6094V44.8145C202.621 45.5827 202.53 46.2956 202.348 46.9531C202.172 47.6042 201.911 48.1738 201.566 48.6621C201.221 49.1439 200.792 49.5215 200.277 49.7949C199.77 50.0618 199.184 50.1953 198.52 50.1953C197.868 50.1953 197.302 50.0716 196.82 49.8242C196.339 49.5703 195.932 49.2122 195.6 48.75C195.268 48.2878 195.001 47.7507 194.799 47.1387C194.604 46.5202 194.457 45.8464 194.359 45.1172V44.4629C194.457 43.6882 194.604 42.985 194.799 42.3535C195.001 41.7155 195.268 41.1654 195.6 40.7031C195.932 40.2344 196.335 39.873 196.811 39.6191C197.292 39.3652 197.855 39.2383 198.5 39.2383C199.171 39.2383 199.76 39.3652 200.268 39.6191C200.782 39.873 201.215 40.2376 201.566 40.7129C201.918 41.1882 202.182 41.7546 202.357 42.4121C202.533 43.0697 202.621 43.8021 202.621 44.6094ZM200.033 44.8145V44.6094C200.033 44.1406 199.991 43.7077 199.906 43.3105C199.822 42.9069 199.691 42.5553 199.516 42.2559C199.34 41.9499 199.112 41.7122 198.832 41.543C198.552 41.3737 198.214 41.2891 197.816 41.2891C197.419 41.2891 197.077 41.3542 196.791 41.4844C196.505 41.6146 196.27 41.8001 196.088 42.041C195.906 42.2819 195.762 42.5684 195.658 42.9004C195.561 43.2259 195.495 43.5872 195.463 43.9844V45.6055C195.521 46.0872 195.635 46.5202 195.805 46.9043C195.974 47.2884 196.221 47.5944 196.547 47.8223C196.879 48.0501 197.309 48.1641 197.836 48.1641C198.233 48.1641 198.572 48.0762 198.852 47.9004C199.132 47.7246 199.359 47.4837 199.535 47.1777C199.711 46.8652 199.838 46.5072 199.916 46.1035C199.994 45.6999 200.033 45.2702 200.033 44.8145ZM217.201 44.8145V45.0195C217.201 45.7747 217.117 46.4681 216.947 47.0996C216.785 47.7311 216.537 48.278 216.205 48.7402C215.88 49.2025 215.476 49.5605 214.994 49.8145C214.512 50.0684 213.956 50.1953 213.324 50.1953C212.758 50.1953 212.263 50.0944 211.84 49.8926C211.423 49.6842 211.072 49.3945 210.785 49.0234C210.505 48.6458 210.277 48.2064 210.102 47.7051C209.932 47.1973 209.805 46.6471 209.721 46.0547V43.6719C209.805 43.0339 209.932 42.4479 210.102 41.9141C210.271 41.3737 210.499 40.9049 210.785 40.5078C211.072 40.1042 211.42 39.7917 211.83 39.5703C212.247 39.349 212.738 39.2383 213.305 39.2383C213.819 39.2383 214.281 39.3262 214.691 39.502C215.102 39.6777 215.463 39.9316 215.775 40.2637C216.088 40.5892 216.348 40.9831 216.557 41.4453C216.771 41.901 216.931 42.4154 217.035 42.9883C217.146 43.5547 217.201 44.1634 217.201 44.8145ZM214.613 45.0195V44.8145C214.613 44.4303 214.59 44.0625 214.545 43.7109C214.499 43.3529 214.428 43.0273 214.33 42.7344C214.232 42.4414 214.105 42.1842 213.949 41.9629C213.793 41.7415 213.604 41.5723 213.383 41.4551C213.161 41.3314 212.908 41.2695 212.621 41.2695C212.178 41.2695 211.814 41.3509 211.527 41.5137C211.247 41.6764 211.036 41.901 210.893 42.1875C210.756 42.474 210.674 42.8092 210.648 43.1934V46.543C210.681 46.8685 210.769 47.1517 210.912 47.3926C211.055 47.6335 211.267 47.8223 211.547 47.959C211.833 48.0957 212.198 48.1641 212.641 48.1641C212.999 48.1641 213.301 48.0859 213.549 47.9297C213.803 47.7669 214.008 47.5456 214.164 47.2656C214.32 46.9792 214.434 46.6471 214.506 46.2695C214.577 45.8854 214.613 45.4688 214.613 45.0195ZM204.076 45.0195V44.8145C204.076 44.1634 204.128 43.5547 204.232 42.9883C204.343 42.4154 204.506 41.901 204.721 41.4453C204.936 40.9831 205.199 40.5892 205.512 40.2637C205.824 39.9316 206.186 39.6777 206.596 39.502C207.006 39.3262 207.465 39.2383 207.973 39.2383C208.539 39.2383 209.027 39.349 209.438 39.5703C209.848 39.7917 210.193 40.1042 210.473 40.5078C210.753 40.9049 210.977 41.3737 211.146 41.9141C211.316 42.4479 211.446 43.0339 211.537 43.6719V45.957C211.452 46.5625 211.322 47.1257 211.146 47.6465C210.977 48.1608 210.749 48.61 210.463 48.9941C210.183 49.3783 209.838 49.6745 209.428 49.8828C209.018 50.0911 208.526 50.1953 207.953 50.1953C207.328 50.1953 206.775 50.0684 206.293 49.8145C205.811 49.5605 205.404 49.2025 205.072 48.7402C204.747 48.278 204.499 47.7311 204.33 47.0996C204.161 46.4681 204.076 45.7747 204.076 45.0195ZM206.664 44.8145V45.0195C206.664 45.4688 206.697 45.8854 206.762 46.2695C206.833 46.6471 206.944 46.9792 207.094 47.2656C207.25 47.5456 207.452 47.7669 207.699 47.9297C207.947 48.0859 208.249 48.1641 208.607 48.1641C209.057 48.1641 209.421 48.0924 209.701 47.9492C209.981 47.7995 210.193 47.5977 210.336 47.3438C210.486 47.0833 210.574 46.7806 210.6 46.4355V43.1934C210.58 42.8092 210.499 42.474 210.355 42.1875C210.212 41.901 210.001 41.6764 209.721 41.5137C209.441 41.3509 209.076 41.2695 208.627 41.2695C208.269 41.2695 207.963 41.3639 207.709 41.5527C207.462 41.735 207.26 41.9889 207.104 42.3145C206.954 42.64 206.843 43.0176 206.771 43.4473C206.7 43.877 206.664 44.3327 206.664 44.8145ZM209.311 54.0625V35H211.908V54.0625H209.311Z" fill="#1B1B1B"/>
<line opacity="0.2" x1="17.5" y1="79" x2="17.5" y2="2.18557e-08" stroke="black" stroke-opacity="0.2"/>
<line opacity="0.2" y1="16.5" x2="79" y2="16.5" stroke="black" stroke-opacity="0.2"/>
<rect x="21" y="20" width="46" height="46" rx="4" fill="#FF9000"/>
<path d="M41.9609 46.0781L44.8359 39.5469H46.2266L42.4609 48H41.4609L37.7109 39.5469H39.1016L41.9609 46.0781ZM38.6797 39.5469V48H37.2344V39.5469H38.6797ZM45.1953 48V39.5469H46.6484V48H45.1953ZM53.2109 41.7891V42.7891H48.5391V41.9453L50.7891 39.8281C51.0234 39.6094 51.2083 39.4141 51.3438 39.2422C51.4792 39.0703 51.5755 38.9167 51.6328 38.7812C51.6953 38.6406 51.7266 38.513 51.7266 38.3984C51.7266 38.1484 51.6432 37.9427 51.4766 37.7812C51.3099 37.6198 51.0729 37.5391 50.7656 37.5391C50.375 37.5391 50.0859 37.638 49.8984 37.8359C49.7161 38.0339 49.625 38.2812 49.625 38.5781H48.3906C48.3906 38.2031 48.4844 37.862 48.6719 37.5547C48.8594 37.2474 49.1276 37.0026 49.4766 36.8203C49.8255 36.6328 50.2448 36.5391 50.7344 36.5391C51.2031 36.5391 51.6042 36.6146 51.9375 36.7656C52.2708 36.9167 52.526 37.1302 52.7031 37.4062C52.8802 37.6771 52.9688 38.0026 52.9688 38.3828C52.9688 38.6589 52.9062 38.9167 52.7812 39.1562C52.6615 39.3958 52.4896 39.6354 52.2656 39.875C52.0417 40.1146 51.776 40.3724 51.4688 40.6484L50.1016 41.7891H53.2109Z" fill="white"/>
</svg>
