<svg width="41" height="40" viewBox="0 0 41 40" fill="none" xmlns="http://www.w3.org/2000/svg">
<path d="M37.9707 4.0463C37.4851 3.65152 36.8991 3.39279 36.275 3.29764C35.6509 3.20249 35.0121 3.27448 34.4266 3.50595L3.86381 15.5649C3.21021 15.8277 2.65384 16.2785 2.26856 16.8576C1.88327 17.4366 1.68729 18.1165 1.70663 18.8069C1.72596 19.4974 1.9597 20.1657 2.37681 20.7233C2.79393 21.2809 3.37469 21.7013 4.04203 21.9288L10.2242 24.03L13.67 35.1661C13.7168 35.3149 13.7848 35.4565 13.8719 35.5868C13.8851 35.6068 13.9038 35.6216 13.9178 35.6411C14.0184 35.7783 14.1401 35.8996 14.2784 36.0007C14.3177 36.03 14.3554 36.0574 14.3975 36.0835C14.5594 36.1884 14.7387 36.2652 14.9274 36.3103L14.9476 36.312L14.959 36.3168C15.0725 36.3393 15.188 36.3508 15.3038 36.351C15.3149 36.351 15.3248 36.3457 15.3358 36.3456C15.5106 36.3426 15.6838 36.3132 15.8493 36.2584C15.8878 36.2456 15.9208 36.2241 15.9582 36.2086C16.0816 36.1586 16.1986 36.0946 16.3066 36.0177C16.3931 35.9465 16.4796 35.8752 16.5662 35.8041L21.1745 30.8318L28.0479 36.0352C28.653 36.4956 29.3978 36.7459 30.1647 36.7465C30.9682 36.7455 31.747 36.4745 32.3704 35.979C32.9939 35.4836 33.4241 34.7937 33.5889 34.0251L39.1531 7.33082C39.2792 6.73001 39.2358 6.10701 39.0275 5.52846C38.8192 4.94992 38.4539 4.43759 37.9707 4.0463ZM15.98 24.5606C15.7435 24.7908 15.5819 25.0841 15.5154 25.4037L14.9875 27.9104L13.6503 23.5886L20.5833 20.0604L15.98 24.5606ZM30.1381 33.4001L22.0156 27.251C21.6758 26.9944 21.2495 26.8723 20.8217 26.9091C20.3939 26.9459 19.996 27.1389 19.7073 27.4496L18.2314 29.0416L18.753 26.5642L30.8325 14.7592C31.1208 14.4778 31.2965 14.1047 31.3277 13.7077C31.3589 13.3106 31.2436 12.9158 31.0026 12.5947C30.7616 12.2736 30.4109 12.0474 30.014 11.9572C29.6171 11.867 29.2002 11.9187 28.839 12.1029L11.5028 20.924L5.15122 18.6524L35.8122 6.66508L30.1381 33.4001Z" fill="#D5D5D5"/>
</svg>
