<svg width="41" height="40" viewBox="0 0 41 40" fill="none" xmlns="http://www.w3.org/2000/svg">
<path d="M26.8495 22.5489C26.3514 22.0225 25.7919 21.5548 25.1826 21.1554C27.6414 19.2975 29.3645 16.6636 30.058 13.7029C30.1092 13.4889 30.1166 13.2672 30.0798 13.0504C30.043 12.8336 29.9626 12.6261 29.8434 12.4398C29.7242 12.2535 29.5685 12.0921 29.3852 11.9648C29.202 11.8375 28.9947 11.7469 28.7755 11.6982C28.5562 11.6495 28.3293 11.6436 28.1077 11.681C27.8861 11.7183 27.6743 11.7981 27.4844 11.9157C27.2945 12.0333 27.1302 12.1865 27.0011 12.3664C26.872 12.5463 26.7806 12.7494 26.7321 12.9639C26.4091 14.3489 25.7808 15.6483 24.8912 16.7716C24.0015 17.8949 22.8718 18.815 21.5809 19.4677V13.3367C21.5703 13.2141 21.5453 13.0931 21.5063 12.976C21.4951 12.8797 21.4754 12.7844 21.4475 12.6913C21.3748 12.5397 21.2788 12.3999 21.163 12.2765C21.1326 12.2411 21.1172 12.1944 21.0838 12.1616C20.9589 12.0489 20.8174 11.9551 20.6641 11.8832C20.6206 11.8605 20.5883 11.8222 20.5426 11.8032C20.4119 11.7607 20.2765 11.7334 20.1393 11.7221C20.0546 11.6979 19.968 11.6805 19.8804 11.6701L18.7646 11.6667H18.7596C18.3606 11.6649 17.9737 11.8004 17.6669 12.0496C17.36 12.2987 17.1527 12.6456 17.0815 13.0292C17.0102 13.4128 17.0795 13.8087 17.2772 14.1474C17.4749 14.4861 17.7883 14.7459 18.1625 14.8812V23.0323C15.46 20.2907 13.6705 16.8134 13.0296 13.0584C12.9922 12.8426 12.9117 12.6362 12.7926 12.4508C12.6736 12.2655 12.5183 12.1048 12.3358 11.9781C12.1532 11.8514 11.9469 11.761 11.7286 11.7122C11.5103 11.6634 11.2843 11.6571 11.0635 11.6937C10.8427 11.7302 10.6315 11.8089 10.4418 11.9253C10.2521 12.0416 10.0878 12.1933 9.95808 12.3717C9.82841 12.5502 9.73596 12.7518 9.68603 12.9651C9.63609 13.1785 9.62964 13.3993 9.66704 13.6151C10.6637 19.4193 13.9756 24.6002 18.8762 28.021C18.9461 28.0619 19.0189 28.0978 19.0941 28.1284C19.1532 28.1623 19.2144 28.1925 19.2774 28.2187C19.4678 28.2931 19.6704 28.3331 19.8754 28.3367C20.1263 28.3337 20.3733 28.2757 20.5982 28.167C20.6152 28.1591 20.6347 28.1628 20.6516 28.1545C20.8023 28.0777 20.9403 27.9792 21.061 27.8623C21.0853 27.8392 21.1015 27.8108 21.1244 27.7864C21.2345 27.6683 21.3263 27.5351 21.3971 27.3911C21.4209 27.3433 21.4425 27.2976 21.4616 27.2474C21.5365 27.0635 21.5769 26.868 21.5809 26.6701L21.5817 23.1267C22.6384 23.43 23.5905 24.009 24.3355 24.8015L27.146 27.7963C27.2972 27.9582 27.4796 28.0893 27.6827 28.1821C27.8858 28.275 28.1056 28.3278 28.3296 28.3375C28.5537 28.3472 28.7774 28.3136 28.9882 28.2387C29.1989 28.1638 29.3924 28.049 29.5577 27.9008C29.7229 27.7527 29.8567 27.5742 29.9512 27.3755C30.0458 27.1768 30.0993 26.9618 30.1087 26.7429C30.1182 26.5239 30.0833 26.3053 30.0062 26.0995C29.929 25.8938 29.8111 25.7049 29.6592 25.5437L26.8495 22.5489ZM25.7054 1.66675H15.2421C4.74144 1.66675 1.70532 4.63061 1.70532 14.878V25.1042C1.70532 35.3663 4.73728 38.3334 15.2247 38.3334H25.6879C36.1886 38.3334 39.2247 35.3695 39.2247 25.1221V14.8959C39.2247 4.63386 36.1927 1.66675 25.7054 1.66675ZM35.8139 25.1221C35.8139 33.5222 34.2999 35.0001 25.6879 35.0001H15.2247C6.62758 35.0001 5.11618 33.5206 5.11618 25.1042V14.878C5.11618 6.47795 6.63008 5.00008 15.2421 5.00008H25.7054C34.3025 5.00008 35.8139 6.47958 35.8139 14.8959V25.1221Z" fill="#D5D5D5"/>
</svg>
